<?xml version="1.0" standalone="no"?>
<!DOCTYPE svg PUBLIC "-//W3C//DTD SVG 20010904//EN"
 "http://www.w3.org/TR/2001/REC-SVG-20010904/DTD/svg10.dtd">
<svg version="1.0" xmlns="http://www.w3.org/2000/svg"
 width="512.000000pt" height="512.000000pt" viewBox="0 0 512.000000 512.000000"
 preserveAspectRatio="xMidYMid meet">
<metadata>
Created by potrace 1.14, written by Peter Selinger 2001-2017
</metadata>
<g transform="translate(0.000000,512.000000) scale(0.100000,-0.100000)"
fill="#000000" stroke="none">
<path d="M1560 3850 c-127 -12 -265 -55 -277 -86 -3 -7 19 -55 48 -105 29 -51
52 -97 52 -103 0 -6 -99 -184 -220 -396 -120 -212 -269 -478 -331 -591 l-112
-206 -110 -11 c-137 -14 -171 -31 -270 -132 -95 -98 -143 -175 -143 -232 0
-36 6 -47 36 -73 20 -17 53 -36 73 -43 l37 -11 -23 21 c-70 65 -65 209 10 300
91 110 308 129 401 35 115 -114 65 -286 -157 -549 -41 -47 -74 -89 -74 -92 0
-11 165 -6 224 5 31 7 59 9 62 6 8 -8 -29 -86 -64 -134 -42 -57 -102 -90 -190
-103 -87 -14 -195 0 -262 33 -37 18 -46 27 -48 53 -2 25 11 48 85 140 164 203
215 296 227 409 7 70 -8 121 -42 143 -21 14 -23 13 -40 -24 -13 -30 -17 -65
-16 -151 l1 -113 -26 0 c-21 0 -37 -16 -85 -83 -106 -146 -203 -291 -225 -335
-30 -59 -25 -108 12 -136 26 -19 41 -21 175 -20 131 1 156 4 229 28 166 54
271 168 405 439 l53 109 130 -7 c72 -3 209 -7 305 -8 l175 -2 124 43 c96 33
126 40 132 30 5 -7 29 -73 54 -145 24 -73 59 -163 77 -200 l31 -68 8 70 c13
130 88 274 196 375 96 90 167 117 237 90 46 -17 66 -46 66 -97 0 -84 -55 -161
-130 -183 -43 -12 -58 2 -41 42 8 18 16 56 18 83 l4 50 -25 -29 c-37 -44 -80
-187 -80 -268 -1 -56 3 -71 21 -89 20 -20 24 -21 55 -8 18 7 56 33 86 57 29
23 57 40 62 37 32 -20 -16 -141 -75 -194 -84 -73 -218 -107 -285 -71 -23 12
-24 12 -11 -4 8 -10 38 -29 65 -43 61 -31 187 -43 263 -24 69 18 179 71 279
136 l89 57 -80 162 c-79 158 -205 458 -264 626 -74 209 -121 402 -171 691 -82
479 -147 665 -277 790 -105 102 -226 131 -453 109z m74 -1149 c42 -194 76
-357 76 -362 0 -5 -112 -9 -250 -9 -137 0 -250 2 -250 4 0 2 61 133 136 292
75 159 152 322 170 363 19 41 36 72 38 70 2 -2 38 -163 80 -358z"/>
<path d="M3820 3850 c-207 -20 -415 -68 -496 -115 -124 -72 -194 -236 -129
-300 13 -14 29 -25 34 -25 6 0 54 14 107 31 53 17 120 33 149 36 l53 6 -212
-634 c-297 -889 -415 -1292 -416 -1417 0 -163 136 -195 385 -92 108 45 107 44
89 110 -8 30 -11 68 -8 84 l6 30 -48 -37 c-169 -129 -264 -186 -307 -187 -10
0 -32 13 -48 29 -27 27 -29 35 -29 106 0 166 83 437 158 518 52 55 152 56 189
1 28 -44 18 -103 -42 -242 -56 -132 -62 -152 -45 -152 5 0 71 63 147 139 143
145 204 187 247 172 38 -14 48 -48 42 -146 -4 -53 -2 -85 3 -80 17 18 81 221
135 431 30 115 77 279 104 364 27 85 100 320 162 522 109 350 115 366 134 356
36 -19 116 -109 140 -157 97 -191 82 -472 -35 -667 -50 -82 -115 -143 -249
-234 -131 -89 -164 -122 -180 -178 -22 -79 47 -116 200 -109 151 7 353 84 505
192 276 196 509 667 480 970 -35 348 -308 598 -725 661 -122 18 -378 25 -500
14z"/>
</g>
</svg>
